<svg xmlns="http://www.w3.org/2000/svg" width="158.11" height="35" viewBox="0 0 158.11 35"><rect class="svg__rect" x="0" y="0" width="100.28" height="35" fill="#D35B09"/><rect class="svg__rect" x="98.28" y="0" width="59.83" height="35" fill="#E46C17"/><path class="svg__text" d="M15.69 22L14.22 22L14.22 13.47L16.14 13.47L18.60 20.01L21.06 13.47L22.97 13.47L22.97 22L21.49 22L21.49 19.19L21.64 15.43L19.12 22L18.06 22L15.55 15.43L15.69 19.19L15.69 22ZM27.44 18.00L27.44 18.00L27.44 17.52Q27.44 16.28 27.88 15.32Q28.33 14.37 29.13 13.86Q29.94 13.35 30.98 13.35Q32.02 13.35 32.83 13.85Q33.64 14.35 34.07 15.29Q34.51 16.23 34.52 17.48L34.52 17.48L34.52 17.96Q34.52 19.21 34.09 20.16Q33.65 21.10 32.85 21.61Q32.04 22.12 30.99 22.12L30.99 22.12Q29.96 22.12 29.14 21.61Q28.33 21.10 27.89 20.17Q27.45 19.23 27.44 18.00ZM28.92 17.46L28.92 17.96Q28.92 19.36 29.47 20.13Q30.02 20.90 30.99 20.90L30.99 20.90Q31.98 20.90 32.51 20.15Q33.04 19.40 33.04 17.96L33.04 17.96L33.04 17.51Q33.04 16.09 32.50 15.34Q31.97 14.58 30.98 14.58L30.98 14.58Q30.02 14.58 29.48 15.33Q28.94 16.09 28.92 17.46L28.92 17.46ZM40.47 22L38.98 22L38.98 13.47L40.47 13.47L44.28 19.54L44.28 13.47L45.75 13.47L45.75 22L44.27 22L40.47 15.95L40.47 22ZM50.06 19.42L50.06 19.42L51.54 19.42Q51.54 20.15 52.02 20.55Q52.50 20.95 53.40 20.95L53.40 20.95Q54.17 20.95 54.56 20.63Q54.95 20.32 54.95 19.80L54.95 19.80Q54.95 19.24 54.56 18.94Q54.16 18.63 53.13 18.32Q52.10 18.01 51.49 17.63L51.49 17.63Q50.32 16.90 50.32 15.72L50.32 15.72Q50.32 14.69 51.16 14.02Q52.00 13.35 53.35 13.35L53.35 13.35Q54.24 13.35 54.93 13.68Q55.63 14.01 56.03 14.61Q56.43 15.22 56.43 15.96L56.43 15.96L54.95 15.96Q54.95 15.29 54.53 14.91Q54.11 14.54 53.33 14.54L53.33 14.54Q52.61 14.54 52.21 14.85Q51.81 15.16 51.81 15.71L51.81 15.71Q51.81 16.18 52.24 16.50Q52.67 16.81 53.67 17.10Q54.66 17.40 55.27 17.78Q55.87 18.16 56.15 18.65Q56.43 19.13 56.43 19.79L56.43 19.79Q56.43 20.86 55.62 21.49Q54.80 22.12 53.40 22.12L53.40 22.12Q52.47 22.12 51.70 21.77Q50.92 21.43 50.49 20.83Q50.06 20.22 50.06 19.42ZM62.40 14.66L59.77 14.66L59.77 13.47L66.54 13.47L66.54 14.66L63.88 14.66L63.88 22L62.40 22L62.40 14.66ZM75.87 22L70.29 22L70.29 13.47L75.83 13.47L75.83 14.66L71.77 14.66L71.77 17.02L75.28 17.02L75.28 18.19L71.77 18.19L71.77 20.82L75.87 20.82L75.87 22ZM81.55 22L80.06 22L80.06 13.47L83.06 13.47Q84.54 13.47 85.34 14.13Q86.15 14.79 86.15 16.05L86.15 16.05Q86.15 16.90 85.73 17.48Q85.32 18.06 84.58 18.37L84.58 18.37L86.50 21.92L86.50 22L84.91 22L83.20 18.71L81.55 18.71L81.55 22ZM81.55 14.66L81.55 17.52L83.07 17.52Q83.82 17.52 84.24 17.15Q84.66 16.77 84.66 16.11L84.66 16.11Q84.66 15.43 84.27 15.05Q83.89 14.68 83.11 14.66L83.11 14.66L81.55 14.66Z" fill="#FFFFFF"/><path class="svg__text" d="M113.89 22L111.46 22L115.17 13.60L117.51 13.60L121.23 22L118.76 22L118.10 20.37L114.55 20.37L113.89 22ZM116.32 15.93L115.24 18.61L117.40 18.61L116.32 15.93ZM127.76 22L125.38 22L125.38 13.60L129.23 13.60Q130.36 13.60 131.20 13.98Q132.04 14.35 132.50 15.06Q132.96 15.76 132.96 16.71L132.96 16.71Q132.96 17.66 132.50 18.35Q132.04 19.05 131.20 19.42Q130.36 19.80 129.23 19.80L129.23 19.80L127.76 19.80L127.76 22ZM127.76 15.47L127.76 17.93L129.08 17.93Q129.81 17.93 130.18 17.61Q130.56 17.29 130.56 16.71L130.56 16.71Q130.56 16.12 130.18 15.80Q129.81 15.47 129.08 15.47L129.08 15.47L127.76 15.47ZM140.09 22L137.71 22L137.71 13.60L141.55 13.60Q142.69 13.60 143.53 13.98Q144.37 14.35 144.83 15.06Q145.29 15.76 145.29 16.71L145.29 16.71Q145.29 17.66 144.83 18.35Q144.37 19.05 143.53 19.42Q142.69 19.80 141.55 19.80L141.55 19.80L140.09 19.80L140.09 22ZM140.09 15.47L140.09 17.93L141.41 17.93Q142.14 17.93 142.51 17.61Q142.88 17.29 142.88 16.71L142.88 16.71Q142.88 16.12 142.51 15.80Q142.14 15.47 141.41 15.47L141.41 15.47L140.09 15.47Z" fill="#FFFFFF" x="111.28"/></svg>